# xmcd CD database file
#
# Track frame offsets:
#	150
#	31690
#	65641
#	98948
#	122386
#	147441
#	173354
#	205136
#	226386
#	252379
#
# Disc length: 3537 seconds
#
# Revision: 0
# Processed by: cddbd v1.5PL3 Copyright (c) Steve Scherf et al.
# Submitted via: CDex 1.51
#
DISCID=810dcf0a
DTITLE=John St. John - Predators
DYEAR=1999
DGENRE=New Age
TTITLE0=Soaring Free
TTITLE1=Flight Of The Eagle
TTITLE2=Cry In The Night
TTITLE3=Serenity
TTITLE4=Canyon Echoes
TTITLE5=Bird Of Prey
TTITLE6=Wings
TTITLE7=My Kingdon... The Sky
TTITLE8=Night Prowlers
TTITLE9=Night Owl
EXTD=YEAR: 1999
EXTT0=
EXTT1=
EXTT2=
EXTT3=
EXTT4=
EXTT5=
EXTT6=
EXTT7=
EXTT8=
EXTT9=
PLAYORDER=
